<?xml version="1.0" encoding="UTF-8"?>
<svg xmlns="http://www.w3.org/2000/svg" xmlns:xlink="http://www.w3.org/1999/xlink" viewBox="0 0 256 256" width="256px" height="256px">
<g id="surface46528522">
<path style=" stroke:none;fill-rule:nonzero;fill:rgb(0.784314%,24.313726%,54.11765%);fill-opacity:1;" d="M 120 16 C 62.5625 16 16 62.5 16 119.8125 C 16 165.6875 45.8125 204.625 87.125 218.375 C 92.3125 219.3125 96 214 96 210 C 96 207.5625 96.0625 204.625 96 196 C 67.0625 202.25 58 182 58 182 C 53.25 170 47.5 166.5625 47.5 166.5625 C 38.0625 160.125 48.1875 160.3125 48.1875 160.3125 C 58.625 161 64 170 64 170 C 72 184 90.0625 182.625 96 180 C 96 173.625 96.6875 169 98.4375 166.0625 C 65.75 160.3125 47.9375 141.4375 48 115.3125 C 48.0625 99.875 53.375 87.875 62 79 C 58.25 74.25 55.6875 58 63.375 48 C 82.6875 48 94.1875 61.9375 94.1875 61.9375 C 94.1875 61.9375 103.25 58 119.9375 58 C 136.6875 58 145.6875 61.75 145.6875 61.75 C 145.6875 61.75 157.25 48 176.5625 48 C 184.25 58 181.6875 74.25 178.6875 78.6875 C 186.9375 87.375 192 99.375 192 115.3125 C 192 141.4375 174.25 160.3125 141.625 166 C 143.6875 169.125 144 173.5 144 180 C 144 193.875 144 206.5625 144 210 C 144 214 147.625 219.375 152.9375 218.375 C 194.25 204.5625 224 165.6875 224 119.8125 C 224 62.5 177.4375 16 120 16 Z M 120 16 "/>
</g>
</svg>
