<?xml version="1.0" encoding="UTF-8"?>
<svg xmlns="http://www.w3.org/2000/svg" xmlns:xlink="http://www.w3.org/1999/xlink" viewBox="0 0 256 256" width="256px" height="256px">
<g id="surface46520232">
<path style=" stroke:none;fill-rule:nonzero;fill:rgb(0.784314%,24.313726%,54.11765%);fill-opacity:1;" d="M 76.375 16 C 43.125 16 16 43.125 16 76.375 L 16 163.6875 C 16 196.875 43.125 224 76.375 224 L 163.6875 224 C 196.875 224 224 196.875 224 163.625 L 224 76.375 C 224 43.125 196.875 16 163.625 16 Z M 76.375 32 L 163.625 32 C 188.25 32 208 51.75 208 76.375 L 208 163.625 C 208 188.25 188.25 208 163.6875 208 L 76.375 208 C 51.75 208 32 188.25 32 163.6875 L 32 76.375 C 32 51.75 51.75 32 76.375 32 Z M 184 48 C 179.5625 48 176 51.5625 176 56 C 176 60.4375 179.5625 64 184 64 C 188.4375 64 192 60.4375 192 56 C 192 51.5625 188.4375 48 184 48 Z M 120 64 C 89.1875 64 64 89.1875 64 120 C 64 150.8125 89.1875 176 120 176 C 150.8125 176 176 150.8125 176 120 C 176 89.1875 150.8125 64 120 64 Z M 120 80 C 142.1875 80 160 97.8125 160 120 C 160 142.1875 142.1875 160 120 160 C 97.8125 160 80 142.1875 80 120 C 80 97.8125 97.8125 80 120 80 Z M 120 80 "/>
</g>
</svg>
