<?xml version="1.0" encoding="UTF-8"?>
<svg xmlns="http://www.w3.org/2000/svg" xmlns:xlink="http://www.w3.org/1999/xlink" viewBox="0 0 256 256" width="256px" height="256px">
<g id="surface46539568">
<path style=" stroke:none;fill-rule:nonzero;fill:rgb(0.784314%,24.313726%,54.11765%);fill-opacity:1;" d="M 44.125 16 C 28.6875 16 16 28.6875 16 44.125 L 16 195.9375 C 16 211.3125 28.6875 224 44.125 224 L 195.9375 224 C 211.3125 224 224 211.3125 224 195.9375 L 224 44.125 C 224 28.6875 211.3125 16 195.9375 16 Z M 44.125 32 L 195.9375 32 C 202.6875 32 208 37.3125 208 44.125 L 208 195.9375 C 208 202.6875 202.6875 208 195.9375 208 L 44.125 208 C 37.3125 208 32 202.6875 32 195.9375 L 32 44.125 C 32 37.3125 37.3125 32 44.125 32 Z M 64 48 C 55.1875 48 48 55.1875 48 64 C 48 72.8125 55.1875 80 64 80 C 72.8125 80 80 72.8125 80 64 C 80 55.1875 72.8125 48 64 48 Z M 48 96 L 48 192 L 80 192 L 80 96 Z M 96 96 L 96 192 L 128 192 L 128 149.125 C 128 135.8125 129.25 123.875 145.25 123.875 C 161 123.875 160 138.1875 160 150 L 160 192 L 192 192 L 192 144.625 C 192 117.125 186.25 96 155.0625 96 C 140.0625 96 132.5 102 128.375 110 L 128 110 L 128 96 Z M 96 96 "/>
</g>
</svg>
